<svg id="Group_12" data-name="Group 12" xmlns="http://www.w3.org/2000/svg" width="19.509" height="21" viewBox="0 0 19.509 21">
  <path id="Path_6" data-name="Path 6" d="M19.042,3.367a1.4,1.4,0,0,0-1.06-.449H16.491V1.786A1.792,1.792,0,0,0,15.934.457,1.832,1.832,0,0,0,14.6-.1H13.85a1.792,1.792,0,0,0-1.329.557,1.832,1.832,0,0,0-.557,1.329V2.918H7.473V1.786A1.792,1.792,0,0,0,6.916.457,1.832,1.832,0,0,0,5.587-.1H4.832A1.792,1.792,0,0,0,3.5.457a1.832,1.832,0,0,0-.557,1.329V2.918H1.491a1.427,1.427,0,0,0-1.06.449A1.439,1.439,0,0,0,0,4.409V19.391a1.427,1.427,0,0,0,.449,1.06,1.427,1.427,0,0,0,1.06.449H18a1.534,1.534,0,0,0,1.509-1.509V4.409a1.553,1.553,0,0,0-.467-1.042ZM13.491,1.786a.368.368,0,0,1,.377-.377h.754A.368.368,0,0,1,15,1.786V5.163a.368.368,0,0,1-.377.377h-.754a.368.368,0,0,1-.377-.377Zm-9,0a.368.368,0,0,1,.377-.377h.754A.368.368,0,0,1,6,1.786V5.163a.368.368,0,0,1-.377.377H4.868a.368.368,0,0,1-.377-.377V1.786ZM17.982,19.409H1.491v-12H17.982Zm0,0" transform="translate(0 0.1)" fill="#f1802e"/>
</svg>
