<svg xmlns="http://www.w3.org/2000/svg" width="21" height="21" viewBox="0 0 21 21">
  <path id="Path_251" data-name="Path 251" d="M9.27,0H.82A.823.823,0,0,0,0,.82V12.8a.823.823,0,0,0,.82.82H9.27a.823.823,0,0,0,.82-.82V.82A.823.823,0,0,0,9.27,0Zm-.82,11.977H1.641V1.641H8.449ZM20.18,0H11.73a.823.823,0,0,0-.82.82V5.742a.823.823,0,0,0,.82.82H20.18a.823.823,0,0,0,.82-.82V.82A.823.823,0,0,0,20.18,0Zm-.82,4.922H12.551V1.641h6.809ZM9.27,14.437H.82a.823.823,0,0,0-.82.82V20.18A.823.823,0,0,0,.82,21H9.27a.823.823,0,0,0,.82-.82V15.258A.823.823,0,0,0,9.27,14.437Zm-.82,4.922H1.641V16.078H8.449ZM20.18,7.383H11.73a.823.823,0,0,0-.82.82V20.18a.823.823,0,0,0,.82.82H20.18a.823.823,0,0,0,.82-.82V8.2A.823.823,0,0,0,20.18,7.383Zm-.82,11.977H12.551V9.023h6.809Z" fill="#5d5d5d"/>
</svg>
