<svg xmlns="http://www.w3.org/2000/svg" width="13" height="16" viewBox="0 0 13 16">
  <g id="Group_421" data-name="Group 421" transform="translate(-345 -884)">
    <path id="Shape" d="M.572,16A.58.58,0,0,1,0,15.415V.585A.579.579,0,0,1,.572,0a.579.579,0,0,1,.572.585H11.857a1.143,1.143,0,0,1,.988.581,1.2,1.2,0,0,1,.007,1.167L11.209,5.3,12.84,8.648a1.187,1.187,0,0,1-.05,1.138,1.13,1.13,0,0,1-.972.556H1.144v5.073A.579.579,0,0,1,.572,16ZM1.144,1.756V9.171H11.792l-1.906-3.9,1.933-3.512Z" transform="translate(345 884)" fill="red"/>
  </g>
</svg>
