<svg id="Chart-6" xmlns="http://www.w3.org/2000/svg" width="23.763" height="21" viewBox="0 0 23.763 21">
  <path id="Shape" d="M22.934,1.658H.829A.829.829,0,0,1,.829,0H22.934a.829.829,0,0,1,0,1.658Z" transform="translate(0 19.342)" fill="#5d5d5d"/>
  <path id="Shape-2" data-name="Shape" d="M3.869,9.395H1.658A1.66,1.66,0,0,1,0,7.737V1.658A1.66,1.66,0,0,1,1.658,0H3.869A1.66,1.66,0,0,1,5.526,1.658V7.737A1.66,1.66,0,0,1,3.869,9.395ZM1.658,1.658V7.737H3.869V1.658Z" transform="translate(2.487 8.842)" fill="#5d5d5d"/>
  <path id="Shape-3" data-name="Shape" d="M3.869,13.263H1.658A1.66,1.66,0,0,1,0,11.605V1.658A1.66,1.66,0,0,1,1.658,0H3.869A1.66,1.66,0,0,1,5.526,1.658v9.947A1.66,1.66,0,0,1,3.869,13.263ZM1.658,1.658v9.947H3.869V1.658Z" transform="translate(9.118 4.974)" fill="#5d5d5d"/>
  <path id="Shape-4" data-name="Shape" d="M3.869,18.237H1.658A1.66,1.66,0,0,1,0,16.579V1.658A1.66,1.66,0,0,1,1.658,0H3.869A1.66,1.66,0,0,1,5.526,1.658V16.579A1.66,1.66,0,0,1,3.869,18.237ZM1.658,1.658V16.579H3.869V1.658Z" transform="translate(15.75 0)" fill="#5d5d5d"/>
</svg>
