<svg xmlns="http://www.w3.org/2000/svg" width="21" height="21" viewBox="0 0 21 21">
  <g id="Settings-2" transform="translate(-0.7 -0.4)">
    <path id="Shape" d="M3.778,7.556A3.778,3.778,0,1,1,7.556,3.778,3.782,3.782,0,0,1,3.778,7.556Zm0-6.139A2.361,2.361,0,1,0,6.139,3.778,2.364,2.364,0,0,0,3.778,1.417Z" transform="translate(7.422 7.122)" fill="#f1802e"/>
    <path id="Shape-2" data-name="Shape" d="M11.921,21H9.06a1.433,1.433,0,0,1-1.43-1.432v-1.48c-.16-.063-.32-.13-.477-.2L6.108,18.933a1.429,1.429,0,0,1-2.022,0L2.065,16.91a1.435,1.435,0,0,1,0-2.024l1.044-1.046c-.073-.155-.14-.316-.2-.477H1.43A1.433,1.433,0,0,1,0,11.932V9.068A1.433,1.433,0,0,1,1.43,7.636H2.909c.064-.165.132-.326.2-.477L2.074,6.114a1.435,1.435,0,0,1,0-2.024L4.1,2.067a1.43,1.43,0,0,1,2.022,0L7.162,3.112c.155-.073.316-.14.477-.2V1.432A1.433,1.433,0,0,1,9.069,0h2.861a1.433,1.433,0,0,1,1.43,1.432v1.48c.165.065.325.132.477.2l1.045-1.045a1.429,1.429,0,0,1,2.022,0L18.926,4.09a1.435,1.435,0,0,1,0,2.024L17.882,7.159c.075.16.142.32.2.477H19.57a1.42,1.42,0,0,1,1.008.416A1.442,1.442,0,0,1,21,9.068v2.864a1.433,1.433,0,0,1-1.43,1.432H18.092c-.066.168-.134.328-.2.477l1.025,1.046a1.435,1.435,0,0,1,0,2.024l-2.022,2.024a1.429,1.429,0,0,1-2.022,0l-1.045-1.046c-.154.072-.314.14-.477.2v1.48A1.433,1.433,0,0,1,11.921,21ZM6.885,16.122h0a6.6,6.6,0,0,0,2.165.9v2.544h2.861V17.024a6.59,6.59,0,0,0,2.165-.9l1.817,1.8L17.915,15.9l-1.8-1.8a6.618,6.618,0,0,0,.9-2.167H19.56V9.068H17.019a6.619,6.619,0,0,0-.9-2.167l1.8-1.8L15.893,3.079l-1.8,1.8a6.588,6.588,0,0,0-2.165-.9V1.432H9.069V3.976a6.588,6.588,0,0,0-2.165.9l-1.8-1.8L3.085,5.1l1.8,1.8a6.609,6.609,0,0,0-.9,2.167H1.44v2.864H3.962a6.619,6.619,0,0,0,.9,2.167l-1.8,1.8,2.022,2.024,1.8-1.8Z" transform="translate(0.7 0.4)" fill="#f1802e"/>
  </g>
</svg>
