<svg xmlns="http://www.w3.org/2000/svg" width="191.992" height="192" viewBox="0 0 191.992 192">
  <g id="Badge" transform="translate(-0.644 -0.401)">
    <path id="Shape" d="M79.133,192a13,13,0,0,1-9.237-3.819L3.816,122.1a13.082,13.082,0,0,1,0-18.47L90.589,16.9a12.987,12.987,0,0,1,9.237-3.834h66.081a12.968,12.968,0,0,1,3.356.478L180.895,1.909a6.5,6.5,0,1,1,9.147,9.237L178.409,22.778a12.915,12.915,0,0,1,.478,3.352V92.215a12.964,12.964,0,0,1-3.787,9.233L88.37,188.181A13,13,0,0,1,79.133,192ZM99.826,26.13h0L13.049,112.86l66.084,66.084,86.73-86.73.043-56.8L145.955,55.362a21.565,21.565,0,0,1,2.572,9.974,22.057,22.057,0,1,1-11.8-19.254L156.674,26.13ZM126.7,56.624h-.044a8.711,8.711,0,1,0,8.711,8.711h.048a8.715,8.715,0,0,0-8.715-8.712Z" transform="translate(0.644 0.401)" fill="#5d5d5d"/>
  </g>
</svg>
