<svg xmlns="http://www.w3.org/2000/svg" viewBox="0 0 15 15">
  <defs>
    <style>
      .cls-1 {
        fill: #8d8d8d;
      }
    </style>
  </defs>
  <g id="User" transform="translate(-0.22 -0.4)">
    <path id="Shape" class="cls-1" d="M4.085,8.845A4.269,4.269,0,0,1,0,4.422,4.269,4.269,0,0,1,4.085,0,4.269,4.269,0,0,1,8.171,4.422,4.269,4.269,0,0,1,4.085,8.845Zm0-7.739a2.66,2.66,0,0,0-2.023.967,3.581,3.581,0,0,0-.837,2.349,3.581,3.581,0,0,0,.837,2.349,2.66,2.66,0,0,0,2.023.967,2.66,2.66,0,0,0,2.023-.967,3.581,3.581,0,0,0,.837-2.349,3.581,3.581,0,0,0-.837-2.349A2.66,2.66,0,0,0,4.085,1.105Z" transform="translate(3.635 0.4)"/>
    <path id="Shape-2" data-name="Shape" class="cls-1" d="M10.847,0a.556.556,0,0,0-.11,1.106,3.578,3.578,0,0,1,3.139,3.317H1.123A3.607,3.607,0,0,1,4.262,1.108.556.556,0,0,0,4.152,0,4.765,4.765,0,0,0,0,4.974a.551.551,0,0,0,.549.553h13.9A.551.551,0,0,0,15,4.974,4.765,4.765,0,0,0,10.847,0Z" transform="translate(0.22 9.873)"/>
  </g>
</svg>
